<?xml version="1.0" standalone="no"?><!DOCTYPE svg PUBLIC "-//W3C//DTD SVG 1.1//EN" "http://www.w3.org/Graphics/SVG/1.1/DTD/svg11.dtd"><svg t="1709814523298" class="icon" viewBox="0 0 1024 1024" version="1.1" xmlns="http://www.w3.org/2000/svg" p-id="5478" data-spm-anchor-id="a313x.search_index.0.i2.19343a81UmCFES" xmlns:xlink="http://www.w3.org/1999/xlink" width="200" height="200"><path d="M1024 198.656c0 30.0032-9.5232 58.4704-27.648 86.2208-18.944 27.648-41.8816 50.5856-69.5296 70.3488-143.0528 98.816-231.6288 160.4608-266.4448 185.0368-3.9936 2.3552-11.8784 8.704-24.4736 17.408-12.6976 8.704-22.9376 15.7696-30.8224 21.2992-7.8848 5.5296-18.2272 11.8784-29.2864 18.944-11.8784 7.0656-22.9376 11.8784-32.4608 15.0528-10.24 3.1744-19.7632 4.7104-28.4672 4.7104h-1.536c-8.704 0-18.2272-1.536-28.4672-4.7104-10.24-3.1744-21.2992-8.704-32.4608-15.0528-11.8784-7.0656-21.2992-13.4144-29.2864-18.944-7.8848-5.5296-18.2272-12.6976-30.8224-21.2992-12.6976-8.704-20.5824-15.0528-24.4736-17.408-34.816-24.4736-84.5824-58.4704-149.4016-103.5264-64.8192-45.056-103.5264-72.704-116.224-82.2272-23.7568-15.872-45.8752-38.0928-66.4576-65.7408C15.1552 261.12 4.096 235.008 4.096 211.2512c0-29.2864 7.8848-54.5792 23.7568-74.3424 15.7696-19.7632 37.9904-29.2864 67.1744-29.2864h838.0416c24.4736 0 45.8752 8.704 64 26.8288 18.2272 18.3296 26.9312 39.7312 26.9312 64.2048z m0 167.6288v452.1984c0 25.2928-8.704 46.6944-26.8288 64-18.2272 18.2272-39.5264 26.8288-64 26.8288H95.0272c-25.2928 0-46.6944-8.704-64-26.8288-18.2272-17.408-26.8288-39.5264-26.8288-64V366.2848c16.5888 18.944 36.352 34.816 57.7536 49.7664 137.5232 93.2864 231.6288 158.9248 283.0336 196.096 21.2992 15.7696 39.5264 28.4672 52.9408 37.1712 13.4144 8.704 31.6416 18.2272 53.76 27.648 22.1184 9.5232 43.52 14.2336 62.464 14.2336h1.536c19.7632 0 40.3456-4.7104 62.464-14.2336 22.1184-9.5232 40.3456-18.2272 53.76-27.648 13.4144-8.704 30.8224-21.2992 52.9408-37.1712 64.8192-46.6944 158.9248-112.2304 283.0336-196.096 20.5824-14.9504 39.5264-31.6416 56.1152-49.7664z m0 0" fill="#919eab" p-id="5479" data-spm-anchor-id="a313x.search_index.0.i0.19343a81UmCFES" class="selected"></path></svg>