<?xml version="1.0" standalone="no"?><!DOCTYPE svg PUBLIC "-//W3C//DTD SVG 1.1//EN" "http://www.w3.org/Graphics/SVG/1.1/DTD/svg11.dtd"><svg t="1716703689780" class="icon" viewBox="0 0 1024 1024" version="1.1" xmlns="http://www.w3.org/2000/svg" p-id="2250" xmlns:xlink="http://www.w3.org/1999/xlink" width="200" height="200"><path d="M452.266667 290.133333v85.333334c0 42.154667-34.065067 76.8-76.8 76.8h-85.333334a25.6 25.6 0 0 0 0 51.2h85.333334c71.2192 0 128-57.7536 128-128v-85.333334a25.6 25.6 0 0 0-51.2 0z m119.466666 443.733334v-85.333334c0-42.6496 34.850133-76.8 76.8-76.8h85.333334a25.6 25.6 0 0 0 0-51.2h-85.333334c-69.9904 0-128 56.832-128 128v85.333334a25.6 25.6 0 0 0 51.2 0zM205.5168 242.244267L408.746667 445.4912a25.6 25.6 0 0 0 36.1984-36.1984l-203.246934-203.264a25.6 25.6 0 0 0-36.1984 36.215467z m375.466667 375.466666L784.213333 820.957867a25.6 25.6 0 0 0 36.1984-36.1984l-203.246933-203.264a25.6 25.6 0 0 0-36.1984 36.215466zM682.666667 196.266667h68.266666c41.984 0 76.8 35.1232 76.8 76.8v68.266666a25.6 25.6 0 0 0 51.2 0v-68.266666c0-69.853867-57.634133-128-128-128h-68.266666a25.6 25.6 0 0 0 0 51.2z m-341.333334 631.466666h-68.266666c-42.786133 0-76.8-33.621333-76.8-76.8v-68.266666a25.6 25.6 0 0 0-51.2 0v68.266666c0 71.5776 57.053867 128 128 128h68.266666a25.6 25.6 0 0 0 0-51.2z" p-id="2251"></path></svg>