<?xml version="1.0" standalone="no"?><!DOCTYPE svg PUBLIC "-//W3C//DTD SVG 1.1//EN" "http://www.w3.org/Graphics/SVG/1.1/DTD/svg11.dtd"><svg t="1709745041975" class="icon" viewBox="0 0 1024 1024" version="1.1" xmlns="http://www.w3.org/2000/svg" p-id="22431" xmlns:xlink="http://www.w3.org/1999/xlink" width="200" height="200"><path d="M676 192.8h-64c0-70.4-57.6-128-128-128s-128 57.6-128 128h-64c-70.4 0-128 57.6-128 128v128c0 70.4 57.6 128 128 128h64v256c0 70.4 57.6 128 128 128s128-57.6 128-128v-256h64c70.4 0 256-121.6 256-192s-185.6-192-256-192z m-192-64c35.2 0 64 28.8 64 64h-128c0-35.2 28.8-64 64-64z m64 704.8c0 35.2-28.8 64-64 64s-64-28.8-64-64v-256h128v256z m128-320.8h-384c-35.2 0-64-28.8-64-64v-128c0-35.2 28.8-64 64-64h384c35.2 0 192 92.8 192 128 0 36-156.8 128-192 128z" fill="#637381" p-id="22432"></path></svg>