<?xml version="1.0" standalone="no"?><!DOCTYPE svg PUBLIC "-//W3C//DTD SVG 1.1//EN" "http://www.w3.org/Graphics/SVG/1.1/DTD/svg11.dtd"><svg t="1709794728123" class="icon" viewBox="0 0 1024 1024" version="1.1" xmlns="http://www.w3.org/2000/svg" p-id="6253" xmlns:xlink="http://www.w3.org/1999/xlink" width="200" height="200"><path d="M853.333333 512c-6.4 0-14.933333-2.133333-21.333333-2.133333V384c0-177.066667-142.933333-320-320-320S192 206.933333 192 384v125.866667c-6.4 0-14.933333 2.133333-21.333333 2.133333-46.933333 0-85.333333-38.4-85.333334-85.333333 0-40.533333 27.733333-74.666667 66.133334-83.2C172.8 162.133333 326.4 21.333333 512 21.333333s339.2 140.8 360.533333 322.133334c38.4 8.533333 66.133333 42.666667 66.133334 83.2 0 46.933333-38.4 85.333333-85.333334 85.333333z m-341.333333 149.333333c-153.6 0-277.333333-123.733333-277.333333-277.333333S358.4 106.666667 512 106.666667s277.333333 123.733333 277.333333 277.333333-123.733333 277.333333-277.333333 277.333333z m-226.133333-51.2C343.466667 667.733333 422.4 704 512 704c87.466667 0 166.4-34.133333 224-91.733333 64 49.066667 115.2 115.2 140.8 196.266666 17.066667 49.066667 23.466667 89.6 19.2 136.533334-2.133333 32-32 57.6-64 57.6H192c-32 0-61.866667-25.6-64-57.6V917.333333c0-125.866667 61.866667-238.933333 157.866667-307.2z" fill="#919eab" p-id="6254"></path></svg>