<?xml version="1.0" standalone="no"?><!DOCTYPE svg PUBLIC "-//W3C//DTD SVG 1.1//EN" "http://www.w3.org/Graphics/SVG/1.1/DTD/svg11.dtd"><svg t="1710084366058" class="icon" viewBox="0 0 1191 1024" version="1.1" xmlns="http://www.w3.org/2000/svg" p-id="53910" xmlns:xlink="http://www.w3.org/1999/xlink" width="232.6171875" height="200"><path d="M634.478431 60.235294c0-22.086275-16.062745-40.156863-38.14902-40.156863-22.086275 0-40.156863 18.070588-40.156863 40.156863 0 2.007843 0 4.015686 0 6.023529 0 130.509804 0 208.815686 0 315.231373 0 32.12549 10.039216 58.227451 32.12549 78.305882 18.070588 16.062745 38.14902 32.12549 58.227451 46.180392 30.117647 20.078431 62.243137 36.141176 94.368627 54.211765 26.101961 14.054902 40.156863 36.141176 42.164706 66.258824 0 18.070588 2.007843 36.141176 2.007843 56.219608 0 64.25098 0 112.439216 0 170.666667 0 2.007843 0 4.015686 0 6.023529 0 22.086275 18.070588 38.14902 40.156863 38.14902 20.078431 0 38.14902-16.062745 38.14902-36.141176 0 0 0 0 0-2.007843 0 0 0-2.007843 0-2.007843 0 0 0 0 0 0s0 0 0 0c0-70.27451 0-140.54902 0-212.831373 0-48.188235-24.094118-84.329412-70.27451-100.392157-18.070588-6.023529-36.141176-12.047059-52.203922-18.070588-68.266667-24.094118-102.4-66.258824-106.415686-140.54902 0-52.203922 0-263.027451 0-317.239216" p-id="53911" fill="#00a76f"></path><path d="M405.584314 152.596078c0-2.007843 0-4.015686 0-6.023529 0 0 0 0 0 0-4.015686-18.070588-20.078431-32.12549-40.156863-32.12549-20.078431 0-36.141176 14.054902-40.156863 34.133333 0 0 0 0 0 2.007843 0 2.007843 0 4.015686 0 6.023529 0 2.007843 0 2.007843 0 4.015686 0 76.298039 0 154.603922 0 232.909804 0 24.094118 8.031373 46.180392 24.094118 62.243137 18.070588 18.070588 38.14902 36.141176 60.235294 50.196078 34.133333 22.086275 68.266667 42.164706 102.4 60.235294 26.101961 14.054902 38.14902 36.141176 38.14902 64.25098 0 18.070588 2.007843 36.141176 2.007843 54.211765 0 86.337255 0 172.67451 0 259.011765 0 2.007843 0 2.007843 0 4.015686 0 0 0 0 0 2.007843 0 22.086275 18.070588 40.156863 40.156863 40.156863 22.086275 0 40.156863-18.070588 40.156863-40.156863 0 0 0 0 0 0 0 0 0 0 0-2.007843 0-100.392157 0-196.768627 0-297.160784 0-50.196078-24.094118-88.345098-74.290196-104.407843-16.062745-6.023529-32.12549-12.047059-48.188235-16.062745-68.266667-22.086275-102.4-70.27451-106.415686-138.541176" p-id="53912" fill="#00a76f"></path><path d="M783.058824 218.854902c0 86.337255 0 172.67451 0 261.019608 0 6.023529 4.015686 14.054902 8.031373 16.062745 24.094118 12.047059 48.188235 24.094118 72.282353 36.141176 0 0 0-254.996078 0-381.490196l0 0c0 0 0 0 0 0 0-22.086275-18.070588-40.156863-40.156863-40.156863-22.086275 0-40.156863 18.070588-40.156863 38.14902" p-id="53913" fill="#00a76f"></path><path d="M190.745098 626.447059 190.745098 261.019608c-54.211765 30.117647-104.407843 60.235294-158.619608 92.360784C84.329412 443.733333 136.533333 534.086275 190.745098 626.447059" p-id="53914" fill="#00a76f"></path><path d="M1001.913725 383.498039c0 0-2.007843 0-2.007843 2.007843l0 361.411765c54.211765-30.117647 106.415686-60.235294 158.619608-92.360784C1106.321569 562.196078 1054.117647 471.843137 1001.913725 383.498039" p-id="53915" fill="#00a76f"></path><path d="M407.592157 564.203922c0-4.015686-4.015686-10.039216-6.023529-12.047059-24.094118-18.070588-50.196078-34.133333-74.290196-50.196078 0 0 0 240.941176 0 359.403922 0 0 0 0 0 0 0 22.086275 18.070588 40.156863 40.156863 40.156863 22.086275 0 40.156863-18.070588 40.156863-38.14902" p-id="53916" fill="#00a76f"></path></svg>